<svg width="47" height="48" viewBox="0 0 47 48" fill="none" xmlns="http://www.w3.org/2000/svg">
<path d="M16.0384 21.5327L21.0517 16.4611L17.7872 13.1384L15.2223 15.7033L11.9578 12.4389L14.4645 9.87394L11.8412 7.25072L6.76967 12.3223L16.0384 21.5327ZM35.1588 40.7114L40.2303 35.6398L37.6071 33.0166L35.0422 35.5232L31.7777 32.2588L34.2844 29.6938L30.9616 26.4294L25.9483 31.4427L35.1588 40.7114ZM12.4242 44.9668H2.51422V35.0569L12.7156 24.8555L0.182465 12.3223L11.8412 0.663513L24.4327 13.255L33.2351 4.39432C33.7014 3.92797 34.2261 3.57821 34.809 3.34503C35.3919 3.11185 35.9943 2.99527 36.6161 2.99527C37.2379 2.99527 37.8403 3.11185 38.4232 3.34503C39.0062 3.57821 39.5308 3.92797 39.9972 4.39432L43.0867 7.54219C43.5531 8.00854 43.9028 8.53318 44.136 9.11612C44.3692 9.69906 44.4858 10.3014 44.4858 10.9232C44.4858 11.545 44.3692 12.1377 44.136 12.7012C43.9028 13.2647 43.5531 13.7796 43.0867 14.246L34.2844 23.1066L46.8175 35.6398L35.1588 47.2986L22.6256 34.7654L12.4242 44.9668ZM7.17772 40.3033H10.4422L33.2934 17.5104L29.9706 14.1877L7.17772 37.0389V40.3033Z" fill="#AB9E8B"/>
</svg>
