<svg width="53" height="38" viewBox="0 0 53 38" fill="none" xmlns="http://www.w3.org/2000/svg">
<path d="M22.6526 30.6398L35.827 17.4654L32.446 14.0844L22.5943 23.936L17.6976 19.0393L14.3749 22.3621L22.6526 30.6398ZM13.6754 37.6351C10.1389 37.6351 7.1173 36.4109 4.61066 33.9626C2.10403 31.5142 0.850708 28.5218 0.850708 24.9853C0.850708 21.954 1.76398 19.2531 3.59052 16.8825C5.41706 14.5119 7.80711 12.9962 10.7607 12.3356C11.7322 8.7602 13.6754 5.86494 16.59 3.64978C19.5047 1.43461 22.8081 0.327026 26.5 0.327026C31.0469 0.327026 34.904 1.91068 38.0713 5.07797C41.2386 8.24527 42.8223 12.1024 42.8223 16.6493C45.5038 16.9602 47.7287 18.1164 49.4969 20.1178C51.2652 22.1192 52.1493 24.4607 52.1493 27.1422C52.1493 30.0569 51.1291 32.5344 49.0889 34.5747C47.0486 36.6149 44.5711 37.6351 41.6564 37.6351H13.6754ZM13.6754 32.9716H41.6564C43.2886 32.9716 44.6682 32.4081 45.7953 31.2811C46.9223 30.154 47.4858 28.7744 47.4858 27.1422C47.4858 25.51 46.9223 24.1303 45.7953 23.0033C44.6682 21.8763 43.2886 21.3128 41.6564 21.3128H38.1588V16.6493C38.1588 13.4237 37.022 10.6742 34.7486 8.40072C32.4751 6.12726 29.7256 4.99053 26.5 4.99053C23.2744 4.99053 20.5249 6.12726 18.2514 8.40072C15.978 10.6742 14.8412 13.4237 14.8412 16.6493H13.6754C11.4213 16.6493 9.49763 17.446 7.90426 19.0393C6.3109 20.6327 5.51421 22.5564 5.51421 24.8104C5.51421 27.0645 6.3109 28.9882 7.90426 30.5815C9.49763 32.1749 11.4213 32.9716 13.6754 32.9716Z" fill="#AB9E8B"/>
</svg>
