<svg width="43" height="42" viewBox="0 0 43 42" fill="none" xmlns="http://www.w3.org/2000/svg">
<path d="M9.84124 32.6398H19.1683V23.3128H9.84124V32.6398ZM23.8318 32.6398H33.1588V23.3128H23.8318V32.6398ZM9.84124 18.6493H19.1683V9.32228H9.84124V18.6493ZM23.8318 18.6493H33.1588V9.32228H23.8318V18.6493ZM5.17773 41.9668C3.89526 41.9668 2.7974 41.5102 1.88413 40.5969C0.970856 39.6837 0.514221 38.5858 0.514221 37.3033V4.65878C0.514221 3.37631 0.970856 2.27845 1.88413 1.36518C2.7974 0.451905 3.89526 -0.00473022 5.17773 -0.00473022H37.8223C39.1047 -0.00473022 40.2026 0.451905 41.1159 1.36518C42.0292 2.27845 42.4858 3.37631 42.4858 4.65878V37.3033C42.4858 38.5858 42.0292 39.6837 41.1159 40.5969C40.2026 41.5102 39.1047 41.9668 37.8223 41.9668H5.17773ZM5.17773 37.3033H37.8223V4.65878H5.17773V37.3033Z" fill="#AB9E8B"/>
</svg>
