<svg width="42" height="48" viewBox="0 0 42 48" fill="none" xmlns="http://www.w3.org/2000/svg">
<path d="M18.6682 41.2943V25.3218L4.67767 17.219V33.1915L18.6682 41.2943ZM23.3317 41.2943L37.3222 33.1915V17.219L23.3317 25.3218V41.2943ZM20.9999 21.2995L34.8156 13.3133L20.9999 5.32702L7.1843 13.3133L20.9999 21.2995ZM2.34591 37.272C1.60753 36.8446 1.0343 36.281 0.626246 35.5815C0.218189 34.882 0.0141602 34.1047 0.0141602 33.2498V14.7123C0.0141602 13.8574 0.218189 13.0801 0.626246 12.3806C1.0343 11.681 1.60753 11.1175 2.34591 10.6901L18.6682 1.30475C19.4066 0.877257 20.1838 0.663513 20.9999 0.663513C21.8161 0.663513 22.5933 0.877257 23.3317 1.30475L39.654 10.6901C40.3924 11.1175 40.9656 11.681 41.3736 12.3806C41.7817 13.0801 41.9857 13.8574 41.9857 14.7123V33.2498C41.9857 34.1047 41.7817 34.882 41.3736 35.5815C40.9656 36.281 40.3924 36.8446 39.654 37.272L23.3317 46.6574C22.5933 47.0848 21.8161 47.2986 20.9999 47.2986C20.1838 47.2986 19.4066 47.0848 18.6682 46.6574L2.34591 37.272Z" fill="#AB9E8B"/>
</svg>
