<svg width="19" height="18" viewBox="0 0 19 18" fill="none" xmlns="http://www.w3.org/2000/svg">
<path d="M9.34575 17.3156L8.04838 16.1525C6.54224 14.7955 5.29706 13.6248 4.31285 12.6406C3.32864 11.6564 2.54575 10.7729 1.96417 9.98998C1.38259 9.20709 0.976227 8.48757 0.745087 7.83143C0.513947 7.17529 0.398376 6.50423 0.398376 5.81827C0.398376 4.41651 0.868113 3.2459 1.80759 2.30643C2.74706 1.36695 3.91767 0.897217 5.31943 0.897217C6.09487 0.897217 6.83303 1.06125 7.5339 1.38932C8.23478 1.71739 8.83873 2.17967 9.34575 2.77616C9.85276 2.17967 10.4567 1.71739 11.1576 1.38932C11.8585 1.06125 12.5966 0.897217 13.3721 0.897217C14.7738 0.897217 15.9444 1.36695 16.8839 2.30643C17.8234 3.2459 18.2931 4.41651 18.2931 5.81827C18.2931 6.50423 18.1775 7.17529 17.9464 7.83143C17.7153 8.48757 17.3089 9.20709 16.7273 9.98998C16.1457 10.7729 15.3629 11.6564 14.3786 12.6406C13.3944 13.6248 12.1493 14.7955 10.6431 16.1525L9.34575 17.3156ZM9.34575 14.8998C10.7773 13.6174 11.9554 12.5176 12.88 11.6005C13.8045 10.6834 14.5352 9.88559 15.0721 9.20709C15.6089 8.52858 15.9817 7.92463 16.1905 7.39524C16.3993 6.86586 16.5036 6.3402 16.5036 5.81827C16.5036 4.92353 16.2054 4.17792 15.6089 3.58143C15.0124 2.98494 14.2668 2.68669 13.3721 2.68669C12.6712 2.68669 12.0225 2.88428 11.426 3.27945C10.8295 3.67463 10.4194 4.17792 10.1957 4.78932H8.49575C8.27206 4.17792 7.86197 3.67463 7.26548 3.27945C6.66899 2.88428 6.02031 2.68669 5.31943 2.68669C4.42469 2.68669 3.67908 2.98494 3.08259 3.58143C2.4861 4.17792 2.18785 4.92353 2.18785 5.81827C2.18785 6.3402 2.29224 6.86586 2.50101 7.39524C2.70978 7.92463 3.08259 8.52858 3.61943 9.20709C4.15627 9.88559 4.88697 10.6834 5.81153 11.6005C6.7361 12.5176 7.91417 13.6174 9.34575 14.8998Z" fill="#959595"/>
</svg>
