<svg width="21" height="14" viewBox="0 0 21 14" fill="none" xmlns="http://www.w3.org/2000/svg">
<path d="M10.3458 11.3157C11.4642 11.3157 12.4148 10.9243 13.1977 10.1414C13.9806 9.35846 14.3721 8.4078 14.3721 7.28938C14.3721 6.17096 13.9806 5.2203 13.1977 4.43741C12.4148 3.65452 11.4642 3.26307 10.3458 3.26307C9.22735 3.26307 8.27669 3.65452 7.49379 4.43741C6.7109 5.2203 6.31945 6.17096 6.31945 7.28938C6.31945 8.4078 6.7109 9.35846 7.49379 10.1414C8.27669 10.9243 9.22735 11.3157 10.3458 11.3157ZM10.3458 9.70517C9.67472 9.70517 9.10432 9.47031 8.63458 9.00057C8.16485 8.53083 7.92998 7.96044 7.92998 7.28938C7.92998 6.61833 8.16485 6.04794 8.63458 5.5782C9.10432 5.10846 9.67472 4.87359 10.3458 4.87359C11.0168 4.87359 11.5872 5.10846 12.057 5.5782C12.5267 6.04794 12.7616 6.61833 12.7616 7.28938C12.7616 7.96044 12.5267 8.53083 12.057 9.00057C11.5872 9.47031 11.0168 9.70517 10.3458 9.70517ZM10.3458 13.9999C8.16857 13.9999 6.18524 13.3922 4.39577 12.1769C2.60629 10.9615 1.30893 9.33237 0.503662 7.28938C1.30893 5.2464 2.60629 3.61723 4.39577 2.40188C6.18524 1.18653 8.16857 0.578857 10.3458 0.578857C12.523 0.578857 14.5063 1.18653 16.2958 2.40188C18.0852 3.61723 19.3826 5.2464 20.1879 7.28938C19.3826 9.33237 18.0852 10.9615 16.2958 12.1769C14.5063 13.3922 12.523 13.9999 10.3458 13.9999ZM10.3458 12.2104C12.0309 12.2104 13.578 11.7668 14.9872 10.8795C16.3964 9.99224 17.4738 8.79552 18.2195 7.28938C17.4738 5.78324 16.3964 4.58653 14.9872 3.69925C13.578 2.81197 12.0309 2.36833 10.3458 2.36833C8.66068 2.36833 7.11353 2.81197 5.70432 3.69925C4.29511 4.58653 3.2177 5.78324 2.47208 7.28938C3.2177 8.79552 4.29511 9.99224 5.70432 10.8795C7.11353 11.7668 8.66068 12.2104 10.3458 12.2104Z" fill="#959595"/>
</svg>
